# xmcd CD database file
#
# Track frame offsets:
#	150
#	22746
#	40105
#	67301
#	91037
#	112683
#	131833
#	151018
#	165573
#	181361
#	199010
#	217141
#
# Disc length: 3327 seconds
#
# Revision: 4
# Processed by: cddbd v1.5.2PL0 Copyright (c) Steve Scherf et al.
# Submitted via: CDex 1.51
#
DISCID=970cfd0c
DTITLE=Ella Fitzgerald and Louis Armstrong - Capitol Studios in Los Angeles (August 13&23, 1957)
DYEAR=1957
DGENRE=Jazz
TTITLE0=Don't Be That Way
TTITLE1=They All Laughed
TTITLE2=Autumn in New York
TTITLE3=Stompin' at the Savoy
TTITLE4=I Won't Dance
TTITLE5=Gee Baby Ain't I Good to You
TTITLE6=Let's Call the Whole Thing Off
TTITLE7=I've Got My Love to Keep Me Warm
TTITLE8=I'm Putting All My Eggs in One Basket
TTITLE9=A Fine Romance
TTITLE10=Love is Here to Stay
TTITLE11=Learnin' the Blues
EXTD=YEAR: 1957
EXTT0=
EXTT1=
EXTT2=
EXTT3=
EXTT4=
EXTT5=
EXTT6=
EXTT7=
EXTT8=
EXTT9=
EXTT10=
EXTT11=
PLAYORDER=
